<svg width="44" height="44" viewBox="0 0 44 44" fill="none" xmlns="http://www.w3.org/2000/svg">
<circle cx="22" cy="22" r="21.5" stroke="#E1E1E1"/>
<path fill-rule="evenodd" clip-rule="evenodd" d="M15.5775 28.4223C15.9029 28.7477 16.4305 28.7477 16.756 28.4223L22 23.1782L27.2441 28.4223C27.5696 28.7477 28.0972 28.7477 28.4226 28.4223C28.7481 28.0968 28.7481 27.5692 28.4226 27.2438L23.1786 21.9997L28.4226 16.7556C28.7481 16.4302 28.7481 15.9025 28.4226 15.5771C28.0972 15.2516 27.5696 15.2516 27.2441 15.5771L22 20.8212L16.756 15.5771C16.4305 15.2516 15.9029 15.2516 15.5775 15.5771C15.252 15.9025 15.252 16.4302 15.5775 16.7556L20.8215 21.9997L15.5775 27.2438C15.252 27.5692 15.252 28.0968 15.5775 28.4223Z" fill="#7658E0"/>
</svg>
