<svg width="24" height="24" viewBox="0 0 24 24" fill="none" xmlns="http://www.w3.org/2000/svg">
<path fill-rule="evenodd" clip-rule="evenodd" d="M9 6H15V5C15 4.44772 14.5523 4 14 4H10C9.44772 4 9 4.44772 9 5V6ZM17 6V5C17 3.34315 15.6569 2 14 2H10C8.34315 2 7 3.34315 7 5V6H3C2.44772 6 2 6.44772 2 7C2 7.55228 2.44772 8 3 8H4V19C4 20.6569 5.34315 22 7 22H17C18.6569 22 20 20.6569 20 19V8H21C21.5523 8 22 7.55228 22 7C22 6.44772 21.5523 6 21 6H17ZM6 8H18V19C18 19.5523 17.5523 20 17 20H7C6.44772 20 6 19.5523 6 19V8ZM9 11C9 10.4477 9.44772 10 10 10C10.5523 10 11 10.4477 11 11V17C11 17.5523 10.5523 18 10 18C9.44772 18 9 17.5523 9 17V11ZM14 10C13.4477 10 13 10.4477 13 11V17C13 17.5523 13.4477 18 14 18C14.5523 18 15 17.5523 15 17V11C15 10.4477 14.5523 10 14 10Z" fill="#D74B4B"/>
</svg>
