<svg width="24" height="24" viewBox="0 0 24 24" fill="none" xmlns="http://www.w3.org/2000/svg">
<path fill-rule="evenodd" clip-rule="evenodd" d="M10 6C10.5523 6 11 5.55228 11 5V4C11 3.44772 11.4477 3 12 3H19C19.5523 3 20 3.44772 20 4V13C20 13.5523 19.5523 14 19 14H18C17.4477 14 17 14.4477 17 15C17 15.5523 17.4477 16 18 16H19C20.6569 16 22 14.6569 22 13V4C22 2.34315 20.6569 1 19 1H12C10.3431 1 9 2.34315 9 4V5C9 5.55228 9.44772 6 10 6ZM4 11C4 10.4477 4.44772 10 5 10H12C12.5523 10 13 10.4477 13 11V20C13 20.5523 12.5523 21 12 21H5C4.44772 21 4 20.5523 4 20V11ZM12 8H5C3.34315 8 2 9.34315 2 11V20C2 21.6569 3.34315 23 5 23H12C13.6569 23 15 21.6569 15 20V11C15 9.34315 13.6569 8 12 8Z" fill="#333333"/>
</svg>
