<svg width="44" height="44" viewBox="0 0 44 44" fill="none" xmlns="http://www.w3.org/2000/svg">
<circle cx="22" cy="22" r="21.25" fill="white" stroke="#EEEEEE" stroke-width="1.5"/>
<path fill-rule="evenodd" clip-rule="evenodd" d="M22 14.5C21.5398 14.5 21.1667 14.8731 21.1667 15.3333V21.1667H15.3333C14.8731 21.1667 14.5 21.5398 14.5 22C14.5 22.4602 14.8731 22.8333 15.3333 22.8333H21.1667V28.6667C21.1667 29.1269 21.5398 29.5 22 29.5C22.4602 29.5 22.8333 29.1269 22.8333 28.6667V22.8333H28.6667C29.1269 22.8333 29.5 22.4602 29.5 22C29.5 21.5398 29.1269 21.1667 28.6667 21.1667H22.8333V15.3333C22.8333 14.8731 22.4602 14.5 22 14.5Z" fill="#7658E0"/>
</svg>
