<svg width="18" height="18" viewBox="0 0 18 18" fill="none" xmlns="http://www.w3.org/2000/svg">
<path fill-rule="evenodd" clip-rule="evenodd" d="M17 9C17 13.4183 13.4183 17 9 17C4.58172 17 1 13.4183 1 9C1 4.58172 4.58172 1 9 1C13.4183 1 17 4.58172 17 9ZM9 18C13.9706 18 18 13.9706 18 9C18 4.02944 13.9706 0 9 0C4.02944 0 0 4.02944 0 9C0 13.9706 4.02944 18 9 18ZM8.44799 9.97611V10.6961H9.28799V10.1441C9.28799 9.92811 9.30399 9.74411 9.33599 9.59211C9.36799 9.44011 9.41999 9.30411 9.49199 9.18411C9.56399 9.05611 9.65599 8.93611 9.76799 8.82411C9.88799 8.71211 10.032 8.58811 10.2 8.45211C10.352 8.32411 10.496 8.20011 10.632 8.08011C10.768 7.95211 10.884 7.81211 10.98 7.66011C11.084 7.50811 11.164 7.33611 11.22 7.14411C11.276 6.95211 11.304 6.72811 11.304 6.47211C11.304 6.13611 11.24 5.83611 11.112 5.57211C10.992 5.30811 10.828 5.08811 10.62 4.91211C10.412 4.72811 10.164 4.59211 9.87599 4.50411C9.59599 4.40811 9.29599 4.36011 8.97599 4.36011C8.35199 4.36011 7.82399 4.54011 7.39199 4.90011C6.96799 5.25211 6.69599 5.74011 6.57599 6.36411L7.39199 6.50811C7.45599 6.10011 7.61999 5.76411 7.88399 5.50011C8.15599 5.23611 8.50799 5.10411 8.93999 5.10411C9.35599 5.10411 9.70799 5.22811 9.99599 5.47611C10.292 5.72411 10.44 6.07211 10.44 6.52011C10.44 6.83211 10.372 7.09211 10.236 7.30011C10.108 7.50811 9.94399 7.69211 9.74399 7.85211L9.40799 8.15211C9.28799 8.25611 9.16799 8.36811 9.04799 8.48811C8.93599 8.60811 8.83199 8.74011 8.73599 8.88411C8.64799 9.02811 8.57599 9.18811 8.51999 9.36411C8.47199 9.54011 8.44799 9.74411 8.44799 9.97611ZM9.41999 12.8801C9.53999 12.7441 9.59999 12.5921 9.59999 12.4241C9.59999 12.2561 9.53999 12.1081 9.41999 11.9801C9.29999 11.8441 9.14399 11.7761 8.95199 11.7761C8.75999 11.7761 8.60399 11.8441 8.48399 11.9801C8.36399 12.1081 8.30399 12.2561 8.30399 12.4241C8.30399 12.5921 8.36399 12.7441 8.48399 12.8801C8.60399 13.0081 8.75999 13.0721 8.95199 13.0721C9.14399 13.0721 9.29999 13.0081 9.41999 12.8801Z" fill="#747474"/>
</svg>